# xmcd
# 
# Track frame offsets:
#     150
#     36527
#     62700
#     86610
#     107280
#     125352
#     147705
#     177317
#     199065
#     226547
# 
# Disc length: 3607
# 
# Revision: 2
# Processed by: cddbd v1.5.2PL0 Copyright (c) Steve Scherf et al.
# Submitted via: BonkEnc v1.0.8
# 
DISCID=860e150a
DTITLE=Slow Poke [Michael Blake, David Tronzo, Tony Scherr, Kenny Wollesen] - Redemption
DYEAR=1998
DGENRE=Contemporary Jazz
TTITLE0=Johnny Hornet
TTITLE1=Sixth Sense
TTITLE2=Jar of Hair
TTITLE3=Cilantro
TTITLE4=God Don't Never Change
TTITLE5=Dear EAR
TTITLE6=Been A Son
TTITLE7=Redemption
TTITLE8=Breeze Valley
TTITLE9=Shine A Light
EXTD=YEAR: 1999
EXTT0=
EXTT1=
EXTT2=
EXTT3=
EXTT4=
EXTT5=
EXTT6=
EXTT7=
EXTT8=
EXTT9=
PLAYORDER=
